<?xml version="1.0" encoding="utf-8"?>
<!-- Generator: Adobe Illustrator 22.1.0, SVG Export Plug-In . SVG Version: 6.00 Build 0)  -->
<svg version="1.1" id="Layer_1" xmlns="http://www.w3.org/2000/svg" xmlns:xlink="http://www.w3.org/1999/xlink" x="0px" y="0px"
	 viewBox="0 0 59.9 50" style="enable-background:new 0 0 59.9 50;" xml:space="preserve">
<path d="M268.4,251.1c0.9,1.2,1.7,2.4,2.6,3.5C270.1,253.5,269.2,252.3,268.4,251.1z"/>
<g>
	<path d="M291.2,273.9c-1.4,0.1-2.8,0.2-4.1,0.2h4.4C291.4,274.1,291.3,274,291.2,273.9z"/>
</g>
<g>
	<path d="M47.8,45.9c0.1,0.2,0.3,0.4,0.5,0.6C48.1,46.4,48,46.1,47.8,45.9z"/>
	<g>
		<path d="M48.3,46.6c-0.2-0.2-0.3-0.4-0.5-0.6C48,46.1,48.1,46.4,48.3,46.6z"/>
		<path d="M8.6,0C3.8,0-0.1,4-0.1,8.9V50h52c0,0,0,0,0,0c4.5-0.4,8-4.2,8-8.9V0H8.6z M2.5,47.3V8.9c0-3.5,2.8-6.3,6.2-6.3h34.1v35.5
			c0,3.8,1.3,6.9,2.9,9.2H2.5z"/>
	</g>
	<g>
		<rect x="7.2" y="7.1" width="16.8" height="17.2"/>
		<rect x="7.2" y="31.4" width="31" height="2.1"/>
		<rect x="7.2" y="40.8" width="31" height="2.1"/>
		<rect x="7.2" y="36.1" width="31" height="2.1"/>
		<rect x="27.1" y="7.1" width="11.1" height="2.1"/>
		<rect x="27.1" y="12.1" width="11.1" height="2.1"/>
		<rect x="27.1" y="17.1" width="11.1" height="2.1"/>
		<rect x="27.1" y="22.2" width="11.1" height="2.1"/>
		<rect x="7.2" y="26.7" width="31" height="2.1"/>
	</g>
	<g>
		<path d="M51.8,50c-0.2,0-0.5,0-0.7,0L51.8,50C51.9,50,51.8,50,51.8,50z"/>
	</g>
</g>
</svg>
